<svg width="842.7" height="83.301" viewBox="0 0 842.7 83.301" xmlns="http://www.w3.org/2000/svg"><g id="svgGroup" stroke-linecap="round" fill-rule="evenodd" font-size="9pt" stroke="#ffffff" stroke-width="0.25mm" fill="#ffffff" style="stroke:#ffffff;stroke-width:0.25mm;fill:#ffffff"><path d="M 150 82.1 L 134 82.1 L 134 24.3 L 150 24.3 L 150 28.9 A 22.992 22.992 0 0 1 153.055 26.39 A 17.144 17.144 0 0 1 156.65 24.5 Q 160.1 23.2 163.7 23.2 A 11.752 11.752 0 0 1 166.868 23.611 A 9.625 9.625 0 0 1 169.75 24.95 A 9.799 9.799 0 0 1 172.652 28.114 A 13.174 13.174 0 0 1 173.6 30.1 A 24.712 24.712 0 0 1 176.586 27.25 Q 178.422 25.786 180.35 24.923 A 15.043 15.043 0 0 1 180.75 24.75 A 20.003 20.003 0 0 1 186.758 23.264 A 18.614 18.614 0 0 1 188.3 23.2 A 11.775 11.775 0 0 1 191.429 23.6 A 9.622 9.622 0 0 1 194.2 24.85 A 10.179 10.179 0 0 1 197.225 27.997 A 13.223 13.223 0 0 1 198.1 29.65 Q 199.5 32.8 199.5 37.2 L 199.5 82.1 L 183.5 82.1 L 183.5 38.9 A 10.77 10.77 0 0 0 183.44 37.721 Q 183.274 36.221 182.65 35.45 A 2.72 2.72 0 0 0 181.146 34.519 Q 180.701 34.408 180.171 34.401 A 5.42 5.42 0 0 0 180.1 34.4 Q 179.1 34.4 177.6 34.95 A 12.039 12.039 0 0 0 175.074 36.243 A 13.669 13.669 0 0 0 174.7 36.5 L 174.7 36.85 L 174.7 37.2 L 174.7 82.1 L 158.9 82.1 L 158.9 38.9 A 10.178 10.178 0 0 0 158.836 37.721 Q 158.688 36.45 158.19 35.702 A 2.599 2.599 0 0 0 158 35.45 A 2.908 2.908 0 0 0 156.384 34.503 A 4.458 4.458 0 0 0 155.4 34.4 A 5.386 5.386 0 0 0 154.448 34.491 Q 153.988 34.574 153.478 34.733 A 11.007 11.007 0 0 0 152.85 34.95 A 12.094 12.094 0 0 0 150.725 36.015 A 14.269 14.269 0 0 0 150 36.5 L 150 82.1 Z M 407.7 82.1 L 391.7 82.1 L 391.7 24.3 L 407.7 24.3 L 407.7 28.9 A 22.992 22.992 0 0 1 410.755 26.39 A 17.144 17.144 0 0 1 414.35 24.5 Q 417.8 23.2 421.4 23.2 A 11.752 11.752 0 0 1 424.568 23.611 A 9.625 9.625 0 0 1 427.45 24.95 A 9.799 9.799 0 0 1 430.352 28.114 A 13.174 13.174 0 0 1 431.3 30.1 A 24.712 24.712 0 0 1 434.286 27.25 Q 436.122 25.786 438.05 24.923 A 15.043 15.043 0 0 1 438.45 24.75 A 20.003 20.003 0 0 1 444.458 23.264 A 18.614 18.614 0 0 1 446 23.2 A 11.775 11.775 0 0 1 449.129 23.6 A 9.622 9.622 0 0 1 451.9 24.85 A 10.179 10.179 0 0 1 454.925 27.997 A 13.223 13.223 0 0 1 455.8 29.65 Q 457.2 32.8 457.2 37.2 L 457.2 82.1 L 441.2 82.1 L 441.2 38.9 A 10.77 10.77 0 0 0 441.14 37.721 Q 440.974 36.221 440.35 35.45 A 2.72 2.72 0 0 0 438.846 34.519 Q 438.401 34.408 437.871 34.401 A 5.42 5.42 0 0 0 437.8 34.4 Q 436.8 34.4 435.3 34.95 A 12.039 12.039 0 0 0 432.774 36.243 A 13.669 13.669 0 0 0 432.4 36.5 L 432.4 36.85 L 432.4 37.2 L 432.4 82.1 L 416.6 82.1 L 416.6 38.9 A 10.178 10.178 0 0 0 416.536 37.721 Q 416.388 36.45 415.89 35.702 A 2.599 2.599 0 0 0 415.7 35.45 A 2.908 2.908 0 0 0 414.084 34.503 A 4.458 4.458 0 0 0 413.1 34.4 A 5.386 5.386 0 0 0 412.148 34.491 Q 411.688 34.574 411.178 34.733 A 11.007 11.007 0 0 0 410.55 34.95 A 12.094 12.094 0 0 0 408.425 36.015 A 14.269 14.269 0 0 0 407.7 36.5 L 407.7 82.1 Z M 743.2 82.1 L 727.2 82.1 L 727.2 24.3 L 743.2 24.3 L 743.2 28.9 A 22.992 22.992 0 0 1 746.255 26.39 A 17.144 17.144 0 0 1 749.85 24.5 Q 753.3 23.2 756.9 23.2 A 11.752 11.752 0 0 1 760.068 23.611 A 9.625 9.625 0 0 1 762.95 24.95 A 9.799 9.799 0 0 1 765.852 28.114 A 13.174 13.174 0 0 1 766.8 30.1 A 24.712 24.712 0 0 1 769.786 27.25 Q 771.622 25.786 773.55 24.923 A 15.043 15.043 0 0 1 773.95 24.75 A 20.003 20.003 0 0 1 779.958 23.264 A 18.614 18.614 0 0 1 781.5 23.2 A 11.775 11.775 0 0 1 784.629 23.6 A 9.622 9.622 0 0 1 787.4 24.85 A 10.179 10.179 0 0 1 790.425 27.997 A 13.223 13.223 0 0 1 791.3 29.65 Q 792.7 32.8 792.7 37.2 L 792.7 82.1 L 776.7 82.1 L 776.7 38.9 A 10.77 10.77 0 0 0 776.64 37.721 Q 776.474 36.221 775.85 35.45 A 2.72 2.72 0 0 0 774.346 34.519 Q 773.901 34.408 773.371 34.401 A 5.42 5.42 0 0 0 773.3 34.4 Q 772.3 34.4 770.8 34.95 A 12.039 12.039 0 0 0 768.274 36.243 A 13.669 13.669 0 0 0 767.9 36.5 L 767.9 36.85 L 767.9 37.2 L 767.9 82.1 L 752.1 82.1 L 752.1 38.9 A 10.178 10.178 0 0 0 752.036 37.721 Q 751.888 36.45 751.39 35.702 A 2.599 2.599 0 0 0 751.2 35.45 A 2.908 2.908 0 0 0 749.584 34.503 A 4.458 4.458 0 0 0 748.6 34.4 A 5.386 5.386 0 0 0 747.648 34.491 Q 747.188 34.574 746.678 34.733 A 11.007 11.007 0 0 0 746.05 34.95 A 12.094 12.094 0 0 0 743.925 36.015 A 14.269 14.269 0 0 0 743.2 36.5 L 743.2 82.1 Z M 306.8 55.3 L 306.8 28.1 Q 306.8 19.5 309 13.2 Q 311.2 6.9 316.55 3.45 A 19.46 19.46 0 0 1 321.913 1.107 Q 324.398 0.415 327.365 0.156 A 42.922 42.922 0 0 1 331.1 0 A 44.073 44.073 0 0 1 336.349 0.293 Q 341.709 0.938 345.25 3 Q 350.4 6 352.6 11.3 A 27.728 27.728 0 0 1 354.317 17.44 Q 354.8 20.372 354.8 23.7 L 354.8 28.9 L 337.3 28.9 L 337.3 22.3 Q 337.3 19.7 336.95 17.5 A 8.052 8.052 0 0 0 336.495 15.795 A 5.863 5.863 0 0 0 335.35 13.95 A 3.742 3.742 0 0 0 333.899 13.004 Q 332.831 12.6 331.3 12.6 A 8.551 8.551 0 0 0 329.757 12.73 Q 328.918 12.884 328.268 13.222 A 3.786 3.786 0 0 0 327.1 14.15 Q 325.8 15.7 325.45 18 A 31.425 31.425 0 0 0 325.106 22.14 A 35.154 35.154 0 0 0 325.1 22.8 L 325.1 60.3 A 23.46 23.46 0 0 0 325.337 63.693 A 19.882 19.882 0 0 0 325.65 65.35 A 9.041 9.041 0 0 0 326.333 67.295 A 6.941 6.941 0 0 0 327.65 69.15 A 4.689 4.689 0 0 0 329.71 70.333 Q 330.451 70.546 331.338 70.589 A 9.466 9.466 0 0 0 331.8 70.6 Q 333.924 70.6 335.3 69.737 A 4.537 4.537 0 0 0 336.1 69.1 A 7.592 7.592 0 0 0 337.73 66.629 A 9.953 9.953 0 0 0 338.2 65.2 A 20.402 20.402 0 0 0 338.775 61.185 A 23.508 23.508 0 0 0 338.8 60.1 L 338.8 50.6 L 331.5 50.6 L 331.5 40.1 L 354.9 40.1 L 354.9 82.1 L 343.1 82.1 L 342.1 75.4 Q 340.5 78.8 337.4 81.05 Q 334.3 83.3 329 83.3 Q 320.6 83.3 315.75 79.8 A 18.214 18.214 0 0 1 309.717 72.231 A 23.345 23.345 0 0 1 308.85 69.95 Q 306.862 63.793 306.802 55.801 A 66.496 66.496 0 0 1 306.8 55.3 Z M 36.6 82.1 L 0 82.1 L 0 1.1 L 36.4 1.1 L 36.4 13.3 L 17.9 13.3 L 17.9 33.4 L 32 33.4 L 32 45.8 L 17.9 45.8 L 17.9 70 L 36.6 70 L 36.6 82.1 Z M 272.6 82.1 L 256.3 82.1 L 256.3 24.3 L 272.6 24.3 L 272.6 30.1 A 30.402 30.402 0 0 1 276.227 26.981 A 24.227 24.227 0 0 1 279.25 25.1 Q 282.7 23.3 286.5 23.3 A 12.209 12.209 0 0 1 289.122 23.567 A 8.577 8.577 0 0 1 292.45 25.05 A 10.275 10.275 0 0 1 295.42 28.578 A 12.889 12.889 0 0 1 296 29.85 A 16.973 16.973 0 0 1 297.002 33.772 A 22.288 22.288 0 0 1 297.2 36.8 L 297.2 82.1 L 281 82.1 L 281 39.1 A 10.15 10.15 0 0 0 280.938 37.942 Q 280.795 36.698 280.319 35.93 A 3.036 3.036 0 0 0 280.3 35.9 A 2.165 2.165 0 0 0 279.197 35.034 Q 278.576 34.8 277.7 34.8 Q 276.7 34.8 275.35 35.35 A 12.182 12.182 0 0 0 273.815 36.111 A 15.662 15.662 0 0 0 272.6 36.9 L 272.6 82.1 Z M 483.3 82.1 L 467 82.1 L 467 24.3 L 483.3 24.3 L 483.3 30.1 A 30.402 30.402 0 0 1 486.927 26.981 A 24.227 24.227 0 0 1 489.95 25.1 Q 493.4 23.3 497.2 23.3 A 12.209 12.209 0 0 1 499.822 23.567 A 8.577 8.577 0 0 1 503.15 25.05 A 10.275 10.275 0 0 1 506.12 28.578 A 12.889 12.889 0 0 1 506.7 29.85 A 16.973 16.973 0 0 1 507.702 33.772 A 22.288 22.288 0 0 1 507.9 36.8 L 507.9 82.1 L 491.7 82.1 L 491.7 39.1 A 10.15 10.15 0 0 0 491.638 37.942 Q 491.495 36.698 491.019 35.93 A 3.036 3.036 0 0 0 491 35.9 A 2.165 2.165 0 0 0 489.897 35.034 Q 489.276 34.8 488.4 34.8 Q 487.4 34.8 486.05 35.35 A 12.182 12.182 0 0 0 484.515 36.111 A 15.662 15.662 0 0 0 483.3 36.9 L 483.3 82.1 Z M 53.3 82.1 L 39.8 82.1 L 52.1 50.4 L 40.4 24.3 L 56.8 24.3 L 63 38.2 L 68.5 24.3 L 81 24.3 L 69.6 52.8 L 82.7 82.1 L 66.1 82.1 L 59.1 66.2 L 53.3 82.1 Z M 801.6 65.3 L 801.6 41.4 A 38.746 38.746 0 0 1 801.6 41.316 Q 801.611 36.151 803 32.227 A 20.066 20.066 0 0 1 803.1 31.95 A 15.593 15.593 0 0 1 804.94 28.388 A 12.624 12.624 0 0 1 807.6 25.6 A 11.016 11.016 0 0 1 812.636 23.482 A 14.823 14.823 0 0 1 815 23.3 Q 818.2 23.3 821.1 24.55 Q 824 25.8 826.4 27.9 L 826.4 1.1 L 842.7 1.1 L 842.7 82.1 L 826.4 82.1 L 826.4 77.6 A 25.233 25.233 0 0 1 823.299 80.161 A 20.298 20.298 0 0 1 820.8 81.65 A 13.965 13.965 0 0 1 817.538 82.823 A 11.843 11.843 0 0 1 815 83.1 A 14.574 14.574 0 0 1 810.775 82.519 A 11.103 11.103 0 0 1 805.1 78.6 A 14.495 14.495 0 0 1 802.834 74.234 Q 802.159 72.206 801.853 69.724 A 36.257 36.257 0 0 1 801.6 65.3 Z M 108.7 46.3 L 108.7 40.5 Q 108.7 39.112 108.443 38.024 A 7.649 7.649 0 0 0 108.4 37.85 A 4.559 4.559 0 0 0 108.09 36.998 Q 107.833 36.471 107.451 36.099 A 2.866 2.866 0 0 0 107.4 36.05 A 2.194 2.194 0 0 0 106.606 35.589 Q 106.27 35.474 105.859 35.429 A 5.148 5.148 0 0 0 105.3 35.4 A 5.254 5.254 0 0 0 104.488 35.459 Q 104.064 35.525 103.722 35.667 A 2.344 2.344 0 0 0 103.15 36 A 2.998 2.998 0 0 0 102.266 37.181 A 3.898 3.898 0 0 0 102.1 37.65 A 10.577 10.577 0 0 0 101.826 38.908 A 13.821 13.821 0 0 0 101.7 40 L 101.3 44.2 L 86.1 43.6 Q 86.421 36.914 88.624 32.48 A 15.54 15.54 0 0 1 91.65 28.25 A 15.807 15.807 0 0 1 97.727 24.616 Q 100.203 23.773 103.23 23.47 A 35.874 35.874 0 0 1 106.8 23.3 A 25.338 25.338 0 0 1 111.836 23.768 Q 114.773 24.364 117.013 25.721 A 12.897 12.897 0 0 1 119.95 28.15 A 16.724 16.724 0 0 1 123.946 36.541 A 23.453 23.453 0 0 1 124.3 40.7 L 124.3 67.7 A 149.547 149.547 0 0 0 124.321 70.274 Q 124.345 71.676 124.397 72.911 A 80.519 80.519 0 0 0 124.45 74 A 90.93 90.93 0 0 0 124.577 75.927 Q 124.65 76.879 124.738 77.724 A 49.067 49.067 0 0 0 124.85 78.7 A 275.321 275.321 0 0 0 125.03 80.116 Q 125.103 80.671 125.17 81.167 A 137.074 137.074 0 0 0 125.3 82.1 L 110.7 82.1 Q 110.4 79.8 110 77.1 A 94.282 94.282 0 0 0 109.857 76.165 Q 109.563 74.307 109.4 73.9 Q 108.4 77.5 105.65 80.3 Q 102.9 83.1 98.3 83.1 A 15.268 15.268 0 0 1 94.837 82.727 A 11.222 11.222 0 0 1 90.9 81 Q 87.9 78.9 86.4 75.65 A 15.728 15.728 0 0 1 84.9 69.107 A 15.407 15.407 0 0 1 84.9 69 A 22.524 22.524 0 0 1 85.255 64.893 Q 85.709 62.447 86.743 60.459 A 13.65 13.65 0 0 1 87.05 59.9 Q 89.2 56.2 92.7 53.7 Q 96.2 51.2 100.4 49.45 Q 104.6 47.7 108.7 46.3 Z M 538.4 46.3 L 538.4 40.5 Q 538.4 39.112 538.143 38.024 A 7.649 7.649 0 0 0 538.1 37.85 A 4.559 4.559 0 0 0 537.79 36.998 Q 537.533 36.471 537.151 36.099 A 2.866 2.866 0 0 0 537.1 36.05 A 2.194 2.194 0 0 0 536.306 35.589 Q 535.97 35.474 535.559 35.429 A 5.148 5.148 0 0 0 535 35.4 A 5.254 5.254 0 0 0 534.188 35.459 Q 533.764 35.525 533.422 35.667 A 2.344 2.344 0 0 0 532.85 36 A 2.998 2.998 0 0 0 531.966 37.181 A 3.898 3.898 0 0 0 531.8 37.65 A 10.577 10.577 0 0 0 531.526 38.908 A 13.821 13.821 0 0 0 531.4 40 L 531 44.2 L 515.8 43.6 Q 516.121 36.914 518.324 32.48 A 15.54 15.54 0 0 1 521.35 28.25 A 15.807 15.807 0 0 1 527.427 24.616 Q 529.903 23.773 532.93 23.47 A 35.874 35.874 0 0 1 536.5 23.3 A 25.338 25.338 0 0 1 541.536 23.768 Q 544.473 24.364 546.713 25.721 A 12.897 12.897 0 0 1 549.65 28.15 A 16.724 16.724 0 0 1 553.646 36.541 A 23.453 23.453 0 0 1 554 40.7 L 554 67.7 A 149.547 149.547 0 0 0 554.021 70.274 Q 554.045 71.676 554.097 72.911 A 80.519 80.519 0 0 0 554.15 74 A 90.93 90.93 0 0 0 554.277 75.927 Q 554.35 76.879 554.438 77.724 A 49.067 49.067 0 0 0 554.55 78.7 A 275.321 275.321 0 0 0 554.73 80.116 Q 554.803 80.671 554.87 81.167 A 137.074 137.074 0 0 0 555 82.1 L 540.4 82.1 Q 540.1 79.8 539.7 77.1 A 94.282 94.282 0 0 0 539.557 76.165 Q 539.263 74.307 539.1 73.9 Q 538.1 77.5 535.35 80.3 Q 532.6 83.1 528 83.1 A 15.268 15.268 0 0 1 524.537 82.727 A 11.222 11.222 0 0 1 520.6 81 Q 517.6 78.9 516.1 75.65 A 15.728 15.728 0 0 1 514.6 69.107 A 15.407 15.407 0 0 1 514.6 69 A 22.524 22.524 0 0 1 514.955 64.893 Q 515.409 62.447 516.443 60.459 A 13.65 13.65 0 0 1 516.75 59.9 Q 518.9 56.2 522.4 53.7 Q 525.9 51.2 530.1 49.45 Q 534.3 47.7 538.4 46.3 Z M 650.1 46.3 L 650.1 40.5 Q 650.1 39.112 649.843 38.024 A 7.649 7.649 0 0 0 649.8 37.85 A 4.559 4.559 0 0 0 649.49 36.998 Q 649.233 36.471 648.851 36.099 A 2.866 2.866 0 0 0 648.8 36.05 A 2.194 2.194 0 0 0 648.006 35.589 Q 647.67 35.474 647.259 35.429 A 5.148 5.148 0 0 0 646.7 35.4 A 5.254 5.254 0 0 0 645.888 35.459 Q 645.464 35.525 645.122 35.667 A 2.344 2.344 0 0 0 644.55 36 A 2.998 2.998 0 0 0 643.666 37.181 A 3.898 3.898 0 0 0 643.5 37.65 A 10.577 10.577 0 0 0 643.226 38.908 A 13.821 13.821 0 0 0 643.1 40 L 642.7 44.2 L 627.5 43.6 Q 627.821 36.914 630.024 32.48 A 15.54 15.54 0 0 1 633.05 28.25 A 15.807 15.807 0 0 1 639.127 24.616 Q 641.603 23.773 644.63 23.47 A 35.874 35.874 0 0 1 648.2 23.3 A 25.338 25.338 0 0 1 653.236 23.768 Q 656.173 24.364 658.413 25.721 A 12.897 12.897 0 0 1 661.35 28.15 A 16.724 16.724 0 0 1 665.346 36.541 A 23.453 23.453 0 0 1 665.7 40.7 L 665.7 67.7 A 149.547 149.547 0 0 0 665.721 70.274 Q 665.745 71.676 665.797 72.911 A 80.519 80.519 0 0 0 665.85 74 A 90.93 90.93 0 0 0 665.977 75.927 Q 666.05 76.879 666.138 77.724 A 49.067 49.067 0 0 0 666.25 78.7 A 275.321 275.321 0 0 0 666.43 80.116 Q 666.503 80.671 666.57 81.167 A 137.074 137.074 0 0 0 666.7 82.1 L 652.1 82.1 Q 651.8 79.8 651.4 77.1 A 94.282 94.282 0 0 0 651.257 76.165 Q 650.963 74.307 650.8 73.9 Q 649.8 77.5 647.05 80.3 Q 644.3 83.1 639.7 83.1 A 15.268 15.268 0 0 1 636.237 82.727 A 11.222 11.222 0 0 1 632.3 81 Q 629.3 78.9 627.8 75.65 A 15.728 15.728 0 0 1 626.3 69.107 A 15.407 15.407 0 0 1 626.3 69 A 22.524 22.524 0 0 1 626.655 64.893 Q 627.109 62.447 628.143 60.459 A 13.65 13.65 0 0 1 628.45 59.9 Q 630.6 56.2 634.1 53.7 Q 637.6 51.2 641.8 49.45 Q 646 47.7 650.1 46.3 Z M 208.1 63.8 L 208.1 42.6 Q 208.1 36.86 210.157 32.749 A 16.243 16.243 0 0 1 210.5 32.1 Q 212.9 27.8 217.45 25.55 A 21.058 21.058 0 0 1 223.091 23.731 A 28.883 28.883 0 0 1 228.2 23.3 Q 233.35 23.3 237.108 24.725 A 16.538 16.538 0 0 1 238.85 25.5 Q 243.1 27.7 245.25 32 A 19.127 19.127 0 0 1 246.828 36.635 Q 247.275 38.758 247.373 41.205 A 34.994 34.994 0 0 1 247.4 42.6 L 247.4 54.2 L 224.2 54.2 L 224.2 65.3 A 15.985 15.985 0 0 0 224.259 66.718 Q 224.322 67.426 224.453 68.026 A 7.1 7.1 0 0 0 224.7 68.9 Q 225.2 70.3 226.1 70.9 A 3.579 3.579 0 0 0 227.778 71.481 A 4.5 4.5 0 0 0 228.2 71.5 A 4.484 4.484 0 0 0 229.537 71.306 A 3.964 3.964 0 0 0 230.35 70.95 Q 231.3 70.4 231.85 69.2 Q 232.224 68.385 232.344 67.153 A 12.986 12.986 0 0 0 232.4 65.9 L 232.4 59.8 L 247.4 59.8 L 247.4 65.4 A 24.242 24.242 0 0 1 246.902 70.476 Q 246.209 73.713 244.55 76.126 A 13.438 13.438 0 0 1 242.3 78.65 A 17.014 17.014 0 0 1 235.668 82.155 Q 232.348 83.1 228.2 83.1 A 29.59 29.59 0 0 1 223.205 82.7 Q 220.002 82.151 217.4 80.85 Q 212.9 78.6 210.5 74.25 A 18.735 18.735 0 0 1 208.527 68.636 A 26.05 26.05 0 0 1 208.1 63.8 Z M 595.2 82.1 L 562.1 82.1 L 562.1 71.6 L 578 36.2 L 563.3 36.2 L 563.3 24.3 L 595 24.3 L 595 34.2 L 578.9 70.2 L 595.2 70.2 L 595.2 82.1 Z M 692.3 82.1 L 676.1 82.1 L 676.1 1.1 L 692.3 1.1 L 692.3 82.1 Z M 381.6 82.1 L 365.3 82.1 L 365.3 24.3 L 381.6 24.3 L 381.6 82.1 Z M 619.3 82.1 L 603 82.1 L 603 24.3 L 619.3 24.3 L 619.3 82.1 Z M 826.4 71.2 L 826.4 34.7 Q 825.4 34.2 824.3 33.8 Q 823.2 33.4 822.2 33.4 A 4.078 4.078 0 0 0 820.843 33.614 Q 819.743 34 819.095 35.083 A 4.415 4.415 0 0 0 819 35.25 Q 818.007 37.088 818 39.665 A 13.46 13.46 0 0 0 818 39.7 L 818 66.3 Q 818 68.1 818.4 69.55 A 5.885 5.885 0 0 0 818.836 70.686 A 4.288 4.288 0 0 0 819.7 71.85 A 3.037 3.037 0 0 0 821.201 72.613 A 4.41 4.41 0 0 0 822.1 72.7 Q 822.9 72.7 824.05 72.3 A 12.491 12.491 0 0 0 825.507 71.683 A 15.261 15.261 0 0 0 826.4 71.2 Z M 717.7 82.1 L 702.3 82.1 L 702.3 66.7 L 717.7 66.7 L 717.7 82.1 Z M 381.6 14.5 L 365.2 14.5 L 365.2 3.2 L 381.6 3.2 L 381.6 14.5 Z M 619.3 14.5 L 602.9 14.5 L 602.9 3.2 L 619.3 3.2 L 619.3 14.5 Z M 108.7 69.2 L 108.7 53.4 A 49.541 49.541 0 0 0 105.98 55.151 A 42.618 42.618 0 0 0 105 55.85 A 15.954 15.954 0 0 0 102.899 57.687 A 13.938 13.938 0 0 0 102.1 58.6 Q 100.9 60.1 100.25 61.85 A 10.248 10.248 0 0 0 99.699 64.15 A 13.257 13.257 0 0 0 99.6 65.8 A 11.365 11.365 0 0 0 99.739 67.633 Q 99.898 68.61 100.243 69.402 A 5.578 5.578 0 0 0 100.8 70.4 A 4.034 4.034 0 0 0 102.066 71.588 Q 102.865 72.052 103.886 72.096 A 5.022 5.022 0 0 0 104.1 72.1 A 4.376 4.376 0 0 0 105.571 71.856 A 4.113 4.113 0 0 0 105.95 71.7 A 5.488 5.488 0 0 0 107.495 70.606 A 6.604 6.604 0 0 0 107.5 70.6 Q 108.2 69.9 108.7 69.2 Z M 538.4 69.2 L 538.4 53.4 A 49.541 49.541 0 0 0 535.68 55.151 A 42.618 42.618 0 0 0 534.7 55.85 A 15.954 15.954 0 0 0 532.599 57.687 A 13.938 13.938 0 0 0 531.8 58.6 Q 530.6 60.1 529.95 61.85 A 10.248 10.248 0 0 0 529.399 64.15 A 13.257 13.257 0 0 0 529.3 65.8 A 11.365 11.365 0 0 0 529.439 67.633 Q 529.598 68.61 529.943 69.402 A 5.578 5.578 0 0 0 530.5 70.4 A 4.034 4.034 0 0 0 531.766 71.588 Q 532.565 72.052 533.586 72.096 A 5.022 5.022 0 0 0 533.8 72.1 A 4.376 4.376 0 0 0 535.271 71.856 A 4.113 4.113 0 0 0 535.65 71.7 A 5.488 5.488 0 0 0 537.195 70.606 A 6.604 6.604 0 0 0 537.2 70.6 Q 537.9 69.9 538.4 69.2 Z M 650.1 69.2 L 650.1 53.4 A 49.541 49.541 0 0 0 647.38 55.151 A 42.618 42.618 0 0 0 646.4 55.85 A 15.954 15.954 0 0 0 644.299 57.687 A 13.938 13.938 0 0 0 643.5 58.6 Q 642.3 60.1 641.65 61.85 A 10.248 10.248 0 0 0 641.099 64.15 A 13.257 13.257 0 0 0 641 65.8 A 11.365 11.365 0 0 0 641.139 67.633 Q 641.298 68.61 641.643 69.402 A 5.578 5.578 0 0 0 642.2 70.4 A 4.034 4.034 0 0 0 643.466 71.588 Q 644.265 72.052 645.286 72.096 A 5.022 5.022 0 0 0 645.5 72.1 A 4.376 4.376 0 0 0 646.971 71.856 A 4.113 4.113 0 0 0 647.35 71.7 A 5.488 5.488 0 0 0 648.895 70.606 A 6.604 6.604 0 0 0 648.9 70.6 Q 649.6 69.9 650.1 69.2 Z M 224.2 41.7 L 224.2 46.6 L 232.4 46.6 L 232.4 40.8 A 15.601 15.601 0 0 0 232.346 39.46 Q 232.232 38.139 231.875 37.26 A 4.525 4.525 0 0 0 231.85 37.2 A 4.763 4.763 0 0 0 231.425 36.401 Q 231.118 35.944 230.732 35.646 A 2.626 2.626 0 0 0 230.35 35.4 A 4.243 4.243 0 0 0 229.098 34.983 A 5.776 5.776 0 0 0 228.1 34.9 A 4.01 4.01 0 0 0 227.084 35.024 A 3.162 3.162 0 0 0 226.05 35.5 A 2.881 2.881 0 0 0 225.384 36.173 Q 225.147 36.5 224.95 36.924 A 6.615 6.615 0 0 0 224.7 37.55 A 7.251 7.251 0 0 0 224.436 38.579 Q 224.233 39.666 224.205 41.19 A 27.246 27.246 0 0 0 224.2 41.7 Z" vector-effect="non-scaling-stroke"/></g></svg>